<svg width="512" height="512" viewBox="0 0 512 512" fill="none" xmlns="http://www.w3.org/2000/svg">
  <defs>
    <linearGradient id="outerFlame" x1="256" y1="56" x2="256" y2="450" gradientUnits="userSpaceOnUse">
      <stop offset="0" stop-color="#FF1F1F"/>
      <stop offset="0.45" stop-color="#FF5A12"/>
      <stop offset="1" stop-color="#FFB000"/>
    </linearGradient>

    <linearGradient id="middleFlame" x1="250" y1="135" x2="250" y2="440" gradientUnits="userSpaceOnUse">
      <stop offset="0" stop-color="#FF8A18"/>
      <stop offset="0.45" stop-color="#FFB21A"/>
      <stop offset="1" stop-color="#FFE04A"/>
    </linearGradient>

    <linearGradient id="innerFlame" x1="256" y1="245" x2="256" y2="450" gradientUnits="userSpaceOnUse">
      <stop offset="0" stop-color="#FFF59A"/>
      <stop offset="0.55" stop-color="#FFF7C7"/>
      <stop offset="1" stop-color="#FFFFFF"/>
    </linearGradient>

    <linearGradient id="sideGlow" x1="130" y1="220" x2="260" y2="430" gradientUnits="userSpaceOnUse">
      <stop offset="0" stop-color="#FF7A00" stop-opacity="0.9"/>
      <stop offset="1" stop-color="#FFB000" stop-opacity="0.1"/>
    </linearGradient>

    <filter id="softShadow" x="120" y="410" width="270" height="70" filterUnits="userSpaceOnUse">
      <feGaussianBlur stdDeviation="12"/>
    </filter>

    <filter id="sparkGlow" x="-20" y="-20" width="80" height="80" filterUnits="userSpaceOnUse">
      <feGaussianBlur stdDeviation="2.5" result="blur"/>
      <feMerge>
        <feMergeNode in="blur"/>
        <feMergeNode in="SourceGraphic"/>
      </feMerge>
    </filter>
  </defs>

  <!-- Ground glow -->
  <ellipse cx="256" cy="440" rx="102" ry="18" fill="#FFB000" opacity="0.35" filter="url(#softShadow)"/>

  <!-- Left subtle flame layer -->
  <path
    d="M146 398C104 356 98 290 124 238C139 208 165 187 183 171C170 204 177 231 199 247C197 210 216 178 246 144C286 99 291 66 268 35C341 62 382 123 383 191C384 235 367 261 353 272C379 272 393 248 394 222C424 255 425 299 408 333C435 368 419 425 373 448C329 470 201 452 146 398Z"
    fill="url(#outerFlame)"
  />

  <!-- Outer flame main body -->
  <path
    d="M254 454C183 454 124 400 119 324C115 263 149 216 188 179C232 137 267 101 250 49C330 76 369 135 372 191C374 229 362 259 348 274C372 281 397 255 393 220C432 258 430 310 408 342C438 390 405 454 326 465C303 468 278 454 254 454Z"
    fill="url(#outerFlame)"
  />

  <!-- Right orange flame layer -->
  <path
    d="M330 446C386 421 404 364 374 322C348 286 322 264 323 216C324 185 317 159 300 135C305 187 271 212 237 238C200 267 178 302 182 354C186 416 241 460 330 446Z"
    fill="#FF7614"
    opacity="0.72"
  />

  <!-- Middle flame -->
  <path
    d="M256 443C205 424 184 381 191 335C198 287 231 253 267 228C305 201 328 174 322 130C362 180 347 230 363 267C373 291 397 308 399 345C401 394 360 436 301 448C286 451 270 448 256 443Z"
    fill="url(#middleFlame)"
  />

  <!-- Inner yellow layer -->
  <path
    d="M259 443C217 420 208 381 226 348C237 328 252 315 255 294C270 333 306 324 309 283C348 322 360 360 341 394C329 415 305 435 259 443Z"
    fill="#FFE96A"
    opacity="0.95"
  />

  <!-- Inner bright flame -->
  <path
    d="M256 444C225 424 224 394 241 371C253 355 274 343 266 313C300 337 327 365 315 401C306 428 282 442 256 444Z"
    fill="url(#innerFlame)"
  />

  <!-- Soft highlight -->
  <path
    d="M145 350C129 305 137 254 180 207C160 257 177 312 220 344C193 348 164 350 145 350Z"
    fill="url(#sideGlow)"
    opacity="0.55"
  />

  <!-- Sparks -->
  <g filter="url(#sparkGlow)">
    <path d="M141 125L147 140L162 146L147 152L141 167L135 152L120 146L135 140L141 125Z" fill="#FFA000"/>
    <circle cx="158" cy="181" r="8" fill="#FF5A12"/>
    <path d="M107 360L112 373L125 378L112 383L107 396L102 383L89 378L102 373L107 360Z" fill="#FFB000"/>
    <circle cx="398" cy="270" r="8" fill="#FF650F"/>
    <path d="M410 304L416 319L431 325L416 331L410 346L404 331L389 325L404 319L410 304Z" fill="#FF8A00"/>
  </g>
</svg>